# xmcd
# 
# Track frame offsets:
#     150
#     704
#     11020
#     12146
#     18723
#     19804
#     21182
#     34075
#     39759
#     40429
#     45426
#     46755
#     63318
#     67731
#     68498
#     77285
#     90355
#     91901
#     98215
#     98906
#     107443
#     108338
#     120971
#     125219
#     126969
#     137739
#     138257
#     148481
#     149205
#     156886
#     157500
#     164945
#     175318
#     188159
#     204754
#     213451
#     226563
#     232880
#     245555
#     256366
#     266422
#     274199
#     292188
# 
# Disc length: 4258
# 
# Revision: 1
# Processed by: cddbd v1.5.2PL0 Copyright (c) Steve Scherf et al.
# Submitted via: BonkEnc v1.0beta4
# 
DISCID=4610a02b
DTITLE=Colin Buchanan - Remember the Lord
DYEAR=2002
DGENRE=Country
TTITLE0=G'day Intro
TTITLE1=The One And Only God
TTITLE2=Prove It 1 - Who Made Everything
TTITLE3=My God Is So Big
TTITLE4=All The Stars In The Outback Sky
TTITLE5=Intro Old Black Crow
TTITLE6=The Old Black Crow
TTITLE7=And God Said
TTITLE8=Australia Is An Island
TTITLE9=God Our Father
TTITLE10=Prove It 2 - Who Made Me
TTITLE11=Nothing Takes God By Surprise
TTITLE12=Verse To Remember - Psalm 75v1
TTITLE13=From The Sky Above
TTITLE14=Verse To Remember - Hebrews 1v1-2
TTITLE15=Remember The Lord
TTITLE16=Prove It 3 - Why Did God Make Me And Everything
TTITLE17=Verse To Remember - Isaiah 53v6
TTITLE18=When I'm Really Naughty
TTITLE19=Jesus Loves The Little Children
TTITLE20=Intro This Is The Gospel
TTITLE21=This Is The Gospel
TTITLE22=God Is So Good
TTITLE23=Prove It 4 - How Can I Glorify God
TTITLE24=Gods Map - The Bible
TTITLE25=Intro - John 14v1-4
TTITLE26=Verse To Remember - John 14v1-4
TTITLE27=Intro - Revelation 3v20
TTITLE28=Verse To Remember - Revelation 3v20
TTITLE29=Intro - Romans 6v23
TTITLE30=Verse To Remember - Romans 6v23
TTITLE31=The One And Only God Instrumental
TTITLE32=The Old Black Crow Instrumental
TTITLE33=Nothing Takes God By Surprise Instrumental
TTITLE34=Hebrews 1v1-2 Instrumental
TTITLE35=Remember The Lord Instrumental
TTITLE36=Isaiah 53v6 Instrumental
TTITLE37=This Is The Gospel Instrumental
TTITLE38=God's Map - The Bible Instrumental
TTITLE39=John 14v1-4 Instrumental
TTITLE40=Revelation 3v20 Instrumental
TTITLE41=Romans 6v23 Instrumental
TTITLE42=Bonus Data
EXTD=YEAR: 2002
EXTT0=
EXTT1=
EXTT2=
EXTT3=
EXTT4=
EXTT5=
EXTT6=
EXTT7=
EXTT8=
EXTT9=
EXTT10=
EXTT11=
EXTT12=
EXTT13=
EXTT14=
EXTT15=
EXTT16=
EXTT17=
EXTT18=
EXTT19=
EXTT20=
EXTT21=
EXTT22=
EXTT23=
EXTT24=
EXTT25=
EXTT26=
EXTT27=
EXTT28=
EXTT29=
EXTT30=
EXTT31=
EXTT32=
EXTT33=
EXTT34=
EXTT35=
EXTT36=
EXTT37=
EXTT38=
EXTT39=
EXTT40=
EXTT41=
EXTT42=
PLAYORDER=
